<svg width="719" height="779" viewBox="0 0 719 779" fill="none" xmlns="http://www.w3.org/2000/svg">
<path d="M473.384 0C518.913 0 555.822 36.6925 555.822 81.9551C555.822 94.5481 552.964 106.477 547.859 117.138C650.548 180.058 719 292.885 719 421.606C719 618.989 558.046 779 359.5 779C160.954 779 0.000170143 618.989 0 421.606C8.29535e-05 224.223 160.954 64.2129 359.5 64.2129C370.648 64.2129 381.677 64.7179 392.566 65.7051C400.15 28.2267 433.451 0.000172593 473.384 0ZM359.5 65.2129C161.5 65.2129 1.00008 224.781 1 421.606C1.00017 618.432 161.5 778 359.5 778C557.5 778 718 618.432 718 421.606C718 293.283 649.778 180.796 547.42 118.041C533.996 145.21 505.887 163.911 473.384 163.911L472.318 163.904C427.28 163.337 390.945 126.864 390.945 81.9551C390.945 76.739 391.436 71.6368 392.373 66.6914C381.547 65.713 370.582 65.2129 359.5 65.2129ZM393.374 66.7832C392.437 71.6978 391.945 76.7695 391.945 81.9551C391.945 126.66 428.401 162.911 473.384 162.911C505.529 162.911 533.317 144.398 546.562 117.518C501.18 89.8693 449.134 71.9783 393.374 66.7832ZM473.384 1C433.969 1.00017 401.101 28.8323 393.568 65.7969C449.411 71.0154 501.539 88.9335 547 116.614C552.015 106.107 554.822 94.3569 554.822 81.9551C554.822 37.2503 518.366 1 473.384 1Z" fill="#493021" fill-opacity="0.28"/>
</svg>
