<svg width="109" height="43" viewBox="0 0 109 43" fill="none" xmlns="http://www.w3.org/2000/svg">
<path d="M64.9315 11.4285C62.1883 8.68528 58.9316 6.50918 55.3475 5.02458C51.7633 3.53998 47.9219 2.77588 44.0424 2.77588C40.1629 2.77588 36.3215 3.53998 32.7373 5.02458C29.1532 6.50918 25.8965 8.68528 23.1533 11.4285L44.0424 32.3175L64.9315 11.4285Z" fill="#493021" fill-opacity="0.28"/>
<path d="M44.0686 32.3476C46.8118 35.0908 50.0684 37.2668 53.6526 38.7514C57.2367 40.236 61.0782 41.0001 64.9577 41.0001C68.837 41.0001 72.679 40.236 76.263 38.7514C79.847 37.2668 83.104 35.0908 85.847 32.3476L64.9577 11.4585L44.0686 32.3476Z" fill="#918C8D"/>
<path d="M44.017 32.3427C41.2738 35.0859 38.0171 37.2619 34.433 38.7465C30.8488 40.2311 27.0074 40.9952 23.1279 40.9952C19.2484 40.9952 15.407 40.2311 11.8228 38.7465C8.23867 37.2619 4.98197 35.0859 2.23877 32.3427L23.1279 11.4536L44.017 32.3427Z" fill="#918C8D"/>
<path d="M64.9832 11.4328C67.7261 8.68957 70.9831 6.51357 74.5671 5.02897C78.1511 3.54437 81.9931 2.78027 85.8721 2.78027C89.7521 2.78027 93.5931 3.54437 97.1771 5.02897C100.761 6.51357 104.018 8.68957 106.761 11.4328L85.8721 32.3219L64.9832 11.4328Z" fill="#493021" fill-opacity="0.28"/>
</svg>
