<svg width="103" height="16" viewBox="0 0 103 16" fill="none" xmlns="http://www.w3.org/2000/svg">
<g clip-path="url(#clip0_3101_312)">
<path d="M7.2028 1.38335L5.38892 5.06112L1.33058 5.65279C0.602805 5.75835 0.311138 6.65557 0.838916 7.16946L3.77503 10.0306L3.08058 14.0722C2.95558 14.8028 3.72503 15.35 4.36947 15.0083L8.00003 13.1L11.6306 15.0083C12.275 15.3472 13.0445 14.8028 12.9195 14.0722L12.225 10.0306L15.1611 7.16946C15.6889 6.65557 15.3972 5.75835 14.6695 5.65279L10.6111 5.06112L8.79725 1.38335C8.47225 0.727791 7.53058 0.719458 7.2028 1.38335Z" fill="#FFBB54"/>
</g>
<g clip-path="url(#clip1_3101_312)">
<path d="M28.917 1.38335L27.1031 5.06112L23.0448 5.65279C22.317 5.75835 22.0254 6.65557 22.5531 7.16946L25.4893 10.0306L24.7948 14.0722C24.6698 14.8028 25.4393 15.35 26.0837 15.0083L29.7143 13.1L33.3448 15.0083C33.9893 15.3472 34.7587 14.8028 34.6337 14.0722L33.9393 10.0306L36.8754 7.16946C37.4031 6.65557 37.1115 5.75835 36.3837 5.65279L32.3254 5.06112L30.5115 1.38335C30.1865 0.727791 29.2448 0.719458 28.917 1.38335Z" fill="#FFBB54"/>
</g>
<g clip-path="url(#clip2_3101_312)">
<path d="M50.6314 1.38335L48.8175 5.06112L44.7592 5.65279C44.0314 5.75835 43.7397 6.65557 44.2675 7.16946L47.2036 10.0306L46.5092 14.0722C46.3842 14.8028 47.1536 15.35 47.7981 15.0083L51.4286 13.1L55.0592 15.0083C55.7036 15.3472 56.4731 14.8028 56.3481 14.0722L55.6536 10.0306L58.5897 7.16946C59.1175 6.65557 58.8258 5.75835 58.0981 5.65279L54.0397 5.06112L52.2258 1.38335C51.9008 0.727791 50.9592 0.719458 50.6314 1.38335Z" fill="#FFBB54"/>
</g>
<g clip-path="url(#clip3_3101_312)">
<path d="M72.3456 1.38335L70.5317 5.06112L66.4734 5.65279C65.7456 5.75835 65.454 6.65557 65.9817 7.16946L68.9178 10.0306L68.2234 14.0722C68.0984 14.8028 68.8678 15.35 69.5123 15.0083L73.1428 13.1L76.7734 15.0083C77.4178 15.3472 78.1873 14.8028 78.0623 14.0722L77.3678 10.0306L80.304 7.16946C80.8317 6.65557 80.5401 5.75835 79.8123 5.65279L75.754 5.06112L73.9401 1.38335C73.6151 0.727791 72.6734 0.719458 72.3456 1.38335Z" fill="#FFBB54"/>
</g>
<g clip-path="url(#clip4_3101_312)">
<path d="M94.06 1.38335L92.2461 5.06112L88.1878 5.65279C87.46 5.75835 87.1683 6.65557 87.6961 7.16946L90.6322 10.0306L89.9378 14.0722C89.8128 14.8028 90.5822 15.35 91.2266 15.0083L94.8572 13.1L98.4878 15.0083C99.1322 15.3472 99.9016 14.8028 99.7766 14.0722L99.0822 10.0306L102.018 7.16946C102.546 6.65557 102.254 5.75835 101.527 5.65279L97.4683 5.06112L95.6544 1.38335C95.3294 0.727791 94.3878 0.719458 94.06 1.38335Z" fill="#FFBB54"/>
</g>
<defs>
<clipPath id="clip0_3101_312">
<rect width="16" height="16" fill="white"/>
</clipPath>
<clipPath id="clip1_3101_312">
<rect width="16" height="16" fill="white" transform="translate(21.7142)"/>
</clipPath>
<clipPath id="clip2_3101_312">
<rect width="16" height="16" fill="white" transform="translate(43.4286)"/>
</clipPath>
<clipPath id="clip3_3101_312">
<rect width="16" height="16" fill="white" transform="translate(65.1428)"/>
</clipPath>
<clipPath id="clip4_3101_312">
<rect width="16" height="16" fill="white" transform="translate(86.8572)"/>
</clipPath>
</defs>
</svg>
